<svg version="1.1" id="Layer_1" xmlns="http://www.w3.org/2000/svg" xmlns:xlink="http://www.w3.org/1999/xlink" x="0px" y="0px"
	 width="100%" viewBox="0 0 300 66" enable-background="new 0 0 300 66" xml:space="preserve">
<path fill="#046BA7" opacity="1.000000" stroke="none" 
	d="
M203.000000,67.000000 
	C135.333359,67.000000 68.166718,67.000000 1.000054,67.000000 
	C1.000036,45.000031 1.000036,23.000063 1.000018,1.000072 
	C100.999931,1.000048 200.999863,1.000048 300.999817,1.000024 
	C300.999878,22.999924 300.999878,44.999847 300.999939,66.999886 
	C268.500000,67.000000 236.000000,67.000000 203.000000,67.000000 
M72.145233,51.147148 
	C76.068947,50.854725 73.676422,48.726967 73.072281,47.465523 
	C68.917702,38.790779 64.650429,30.170010 60.233410,21.152117 
	C66.854683,15.378235 73.406067,9.665298 80.549141,3.436394 
	C69.295952,2.371441 59.087666,1.162145 52.314915,11.802360 
	C50.919579,13.994473 48.676811,15.674212 46.707684,17.461245 
	C45.877182,18.214947 44.743656,18.634750 43.428165,19.389843 
	C44.692215,13.571374 45.791626,8.510747 46.933418,3.255040 
	C41.640606,3.255040 36.885052,3.255040 31.841835,3.255040 
	C28.445854,19.154999 25.090063,34.866802 21.663363,50.910599 
	C26.944185,50.910599 31.700846,50.910599 37.035793,50.910599 
	C36.957081,41.580322 41.640396,35.266289 49.835636,30.934347 
	C51.079727,33.728554 52.828274,36.465542 53.528938,39.448650 
	C55.790531,49.077530 61.298019,53.342072 72.145233,51.147148 
M253.200012,17.419146 
	C249.934021,19.244101 247.075424,21.380342 246.762970,25.800743 
	C252.097549,26.012495 257.480774,29.142338 262.160858,23.996408 
	C262.836304,23.253706 264.881317,23.092043 265.941101,23.523916 
	C267.419403,24.126345 268.566742,25.541029 269.855713,26.608122 
	C268.641724,27.451353 267.525726,28.786770 266.196533,29.051479 
	C260.823517,30.121519 255.287033,30.478643 249.997070,31.828556 
	C244.413528,33.253391 241.907852,37.403606 242.481079,42.640038 
	C243.046600,47.806198 246.532715,51.711292 252.064987,51.681946 
	C256.827332,51.656681 261.581848,50.166275 266.520996,49.291603 
	C269.976898,53.712685 275.169922,50.050846 279.459930,51.142143 
	C279.459930,48.530724 279.305115,46.537514 279.501587,44.579556 
	C279.716644,42.436535 280.245911,40.324089 280.656616,38.201878 
	C281.352020,34.608540 282.285645,31.044569 282.715820,27.420376 
	C283.453552,21.205635 280.764740,16.863560 274.661865,16.402149 
	C267.806946,15.883883 260.842682,16.812023 253.200012,17.419146 
M171.078491,15.484428 
	C167.429062,15.682067 163.717041,15.526718 160.144928,16.160267 
	C154.818741,17.104919 150.536514,19.664024 149.162659,25.890007 
	C154.564590,25.704906 160.037170,29.372543 164.625366,24.009447 
	C165.064606,23.496016 166.353012,23.180315 166.963379,23.439980 
	C168.884277,24.257166 170.669785,25.392548 172.507706,26.404747 
	C171.045410,27.353539 169.696060,28.683420 168.093353,29.158504 
	C165.892639,29.810848 163.477203,29.695065 161.194839,30.125944 
	C157.778656,30.770874 154.241150,31.203131 151.040024,32.454418 
	C146.434616,34.254616 144.286713,38.694763 145.268677,43.398815 
	C146.255524,48.126175 149.042999,51.480831 154.079941,51.364639 
	C159.027725,51.250500 163.954468,50.224026 169.330536,49.542088 
	C172.542770,53.751621 177.856110,50.043644 181.889923,51.061047 
	C182.239746,47.216095 182.374481,43.911819 182.876297,40.664265 
	C183.560944,36.233521 184.769669,31.875818 185.311890,27.432882 
	C186.107544,20.913649 183.331284,17.368378 176.900833,16.137661 
	C175.272049,15.825927 173.597855,15.751506 171.078491,15.484428 
M88.308578,17.524338 
	C85.133980,19.384268 82.310455,21.499685 82.072487,25.908787 
	C87.515121,26.014372 92.919388,29.077665 97.600891,23.963207 
	C98.322090,23.175316 100.609673,23.201675 101.851677,23.681971 
	C103.127579,24.175379 104.009895,25.686590 105.064445,26.752394 
	C103.994301,27.533545 103.012306,28.797379 101.838646,29.011715 
	C96.936920,29.906893 91.931549,30.257450 87.050659,31.238113 
	C80.378029,32.578770 77.256531,36.727497 77.844063,42.784252 
	C78.384239,48.352898 82.486046,52.116386 89.002121,51.790188 
	C93.303658,51.574848 97.534431,49.945732 101.403687,49.041504 
	C105.275146,53.270321 110.312019,50.167404 114.334320,51.150955 
	C114.966797,46.218136 115.453049,41.820438 116.115250,37.449402 
	C116.662140,33.839527 117.717010,30.285561 118.011505,26.663301 
	C118.485741,20.830151 115.949852,16.881876 110.216339,16.467840 
	C103.201141,15.961247 96.083511,16.873203 88.308578,17.524338 
M118.733635,54.601643 
	C116.982803,54.774841 115.231972,54.948040 113.394531,55.129807 
	C112.833832,58.147438 112.328461,60.867279 111.706680,64.213615 
	C115.023796,64.584167 117.931580,65.130920 120.849342,65.190773 
	C127.879662,65.334991 131.990707,63.104767 133.526413,57.080086 
	C136.921799,43.759621 139.727676,30.288893 142.867828,16.466507 
	C137.992020,16.466507 133.748779,16.466507 129.138000,16.466507 
	C127.059296,26.232317 125.107124,35.984127 122.848877,45.664532 
	C122.158066,48.625813 120.627052,51.391090 118.733635,54.601643 
M191.136902,39.607765 
	C190.394318,43.292713 189.651733,46.977657 188.808655,51.161255 
	C192.315826,51.161255 195.302307,50.954666 198.246857,51.217651 
	C201.374832,51.497025 202.639709,50.344803 203.155075,47.247089 
	C203.916840,42.668175 204.987274,38.107231 206.359924,33.672874 
	C207.685928,29.389212 210.455185,26.532806 215.446014,26.542953 
	C216.506699,26.545113 218.054901,25.869095 218.541000,25.023872 
	C220.065475,22.373119 221.190247,19.492491 222.455994,16.731106 
	C215.799652,13.494162 211.798904,17.558018 207.188171,22.291626 
	C207.849976,19.345161 208.166931,17.934059 208.519714,16.363401 
	C204.162491,16.363401 200.366989,16.363401 196.190445,16.363401 
	C194.553070,23.905857 192.937836,31.346291 191.136902,39.607765 
M225.078537,22.576876 
	C223.098740,31.931747 221.118958,41.286617 219.029861,51.157925 
	C223.049149,51.157925 226.529892,51.342369 229.970001,51.049660 
	C231.054031,50.957424 232.722656,49.746998 232.947845,48.775726 
	C235.416779,38.126537 237.652817,27.423353 240.073547,16.170240 
	C237.151306,16.170240 234.644012,16.494598 232.254898,16.101221 
	C227.599091,15.334627 225.485931,17.271101 225.078537,22.576876 
M230.980438,3.010572 
	C229.686401,5.796159 228.392365,8.581746 226.788483,12.034290 
	C232.380081,12.034290 236.466370,12.034290 240.863586,12.034290 
	C241.487976,9.100452 242.086288,6.289198 242.788467,2.989884 
	C238.780579,2.989884 235.329758,2.989884 230.980438,3.010572 
M142.097198,12.193306 
	C143.359055,9.424952 144.620926,6.656597 146.178009,3.240579 
	C140.729507,3.240579 136.491440,3.240579 132.004868,3.240579 
	C131.397888,6.144160 130.811615,8.948670 130.126526,12.225855 
	C134.276184,12.225855 137.731079,12.225855 142.097198,12.193306 
z"/>
<path fill="#FBFCFD" opacity="1.000000" stroke="none" 
	d="
M71.686615,51.149548 
	C61.298019,53.342072 55.790531,49.077530 53.528938,39.448650 
	C52.828274,36.465542 51.079727,33.728554 49.835636,30.934347 
	C41.640396,35.266289 36.957081,41.580322 37.035793,50.910599 
	C31.700846,50.910599 26.944185,50.910599 21.663363,50.910599 
	C25.090063,34.866802 28.445854,19.154999 31.841835,3.255040 
	C36.885052,3.255040 41.640606,3.255040 46.933418,3.255040 
	C45.791626,8.510747 44.692215,13.571374 43.428165,19.389843 
	C44.743656,18.634750 45.877182,18.214947 46.707684,17.461245 
	C48.676811,15.674212 50.919579,13.994473 52.314915,11.802360 
	C59.087666,1.162145 69.295952,2.371441 80.549141,3.436394 
	C73.406067,9.665298 66.854683,15.378235 60.233410,21.152117 
	C64.650429,30.170010 68.917702,38.790779 73.072281,47.465523 
	C73.676422,48.726967 76.068947,50.854725 71.686615,51.149548 
z"/>
<path fill="#F7FAFC" opacity="1.000000" stroke="none" 
	d="
M253.563004,17.265022 
	C260.842682,16.812023 267.806946,15.883883 274.661865,16.402149 
	C280.764740,16.863560 283.453552,21.205635 282.715820,27.420376 
	C282.285645,31.044569 281.352020,34.608540 280.656616,38.201878 
	C280.245911,40.324089 279.716644,42.436535 279.501587,44.579556 
	C279.305115,46.537514 279.459930,48.530724 279.459930,51.142143 
	C275.169922,50.050846 269.976898,53.712685 266.520996,49.291603 
	C261.581848,50.166275 256.827332,51.656681 252.064987,51.681946 
	C246.532715,51.711292 243.046600,47.806198 242.481079,42.640038 
	C241.907852,37.403606 244.413528,33.253391 249.997070,31.828556 
	C255.287033,30.478643 260.823517,30.121519 266.196533,29.051479 
	C267.525726,28.786770 268.641724,27.451353 269.855713,26.608122 
	C268.566742,25.541029 267.419403,24.126345 265.941101,23.523916 
	C264.881317,23.092043 262.836304,23.253706 262.160858,23.996408 
	C257.480774,29.142338 252.097549,26.012495 246.762970,25.800743 
	C247.075424,21.380342 249.934021,19.244101 253.563004,17.265022 
M259.465332,44.663677 
	C264.454285,44.079308 266.927795,41.088161 267.859497,35.580395 
	C264.679108,36.254601 261.891693,36.579510 259.316528,37.498867 
	C257.941711,37.989681 255.994949,39.508022 255.996414,40.560280 
	C255.998230,41.881580 257.731506,43.200493 259.465332,44.663677 
z"/>
<path fill="#F7FAFC" opacity="1.000000" stroke="none" 
	d="
M171.511505,15.526233 
	C173.597855,15.751506 175.272049,15.825927 176.900833,16.137661 
	C183.331284,17.368378 186.107544,20.913649 185.311890,27.432882 
	C184.769669,31.875818 183.560944,36.233521 182.876297,40.664265 
	C182.374481,43.911819 182.239746,47.216095 181.889923,51.061047 
	C177.856110,50.043644 172.542770,53.751621 169.330536,49.542088 
	C163.954468,50.224026 159.027725,51.250500 154.079941,51.364639 
	C149.042999,51.480831 146.255524,48.126175 145.268677,43.398815 
	C144.286713,38.694763 146.434616,34.254616 151.040024,32.454418 
	C154.241150,31.203131 157.778656,30.770874 161.194839,30.125944 
	C163.477203,29.695065 165.892639,29.810848 168.093353,29.158504 
	C169.696060,28.683420 171.045410,27.353539 172.507706,26.404745 
	C170.669785,25.392548 168.884277,24.257166 166.963379,23.439980 
	C166.353012,23.180315 165.064606,23.496016 164.625366,24.009447 
	C160.037170,29.372543 154.564590,25.704906 149.162659,25.890007 
	C150.536514,19.664024 154.818741,17.104919 160.144928,16.160267 
	C163.717041,15.526718 167.429062,15.682067 171.511505,15.526233 
M166.115265,36.367393 
	C164.678009,36.735630 162.915848,36.711708 161.882645,37.567661 
	C160.472336,38.736042 159.617203,40.574577 158.524078,42.125824 
	C160.471420,42.823826 162.607208,44.406433 164.327759,44.039879 
	C168.180511,43.219067 170.006577,40.198135 170.313919,35.814548 
	C168.834839,35.975052 167.880386,36.078629 166.115265,36.367393 
z"/>
<path fill="#F8FAFC" opacity="1.000000" stroke="none" 
	d="
M88.659378,17.348061 
	C96.083511,16.873203 103.201141,15.961247 110.216339,16.467840 
	C115.949852,16.881876 118.485741,20.830151 118.011505,26.663301 
	C117.717010,30.285561 116.662140,33.839527 116.115250,37.449402 
	C115.453049,41.820438 114.966797,46.218136 114.334320,51.150955 
	C110.312019,50.167404 105.275146,53.270321 101.403687,49.041504 
	C97.534431,49.945732 93.303658,51.574848 89.002121,51.790188 
	C82.486046,52.116386 78.384239,48.352898 77.844063,42.784252 
	C77.256531,36.727497 80.378029,32.578770 87.050659,31.238113 
	C91.931549,30.257450 96.936920,29.906893 101.838646,29.011715 
	C103.012306,28.797379 103.994301,27.533545 105.064445,26.752392 
	C104.009895,25.686590 103.127579,24.175379 101.851677,23.681971 
	C100.609673,23.201675 98.322090,23.175316 97.600891,23.963207 
	C92.919388,29.077665 87.515121,26.014372 82.072487,25.908787 
	C82.310455,21.499685 85.133980,19.384268 88.659378,17.348061 
M97.349564,36.714478 
	C96.387062,36.961075 95.114479,36.907219 94.525146,37.515408 
	C93.206856,38.875912 92.228889,40.566185 91.112312,42.122147 
	C93.227112,42.775658 95.553406,44.328625 97.411789,43.891644 
	C101.052933,43.035461 102.554726,39.877117 102.997101,35.763447 
	C101.027428,36.070763 99.586685,36.295555 97.349564,36.714478 
z"/>
<path fill="#F8FBFD" opacity="1.000000" stroke="none" 
	d="
M119.107224,54.423882 
	C120.627052,51.391090 122.158066,48.625813 122.848877,45.664532 
	C125.107124,35.984127 127.059296,26.232317 129.138000,16.466507 
	C133.748779,16.466507 137.992020,16.466507 142.867828,16.466507 
	C139.727676,30.288893 136.921799,43.759621 133.526413,57.080086 
	C131.990707,63.104767 127.879662,65.334991 120.849342,65.190773 
	C117.931580,65.130920 115.023796,64.584167 111.706680,64.213615 
	C112.328461,60.867279 112.833832,58.147438 113.394531,55.129807 
	C115.231972,54.948040 116.982803,54.774841 119.107224,54.423882 
z"/>
<path fill="#F7FAFC" opacity="1.000000" stroke="none" 
	d="
M191.229752,39.197243 
	C192.937836,31.346291 194.553070,23.905857 196.190445,16.363401 
	C200.366989,16.363401 204.162491,16.363401 208.519714,16.363401 
	C208.166931,17.934059 207.849976,19.345161 207.188171,22.291626 
	C211.798904,17.558018 215.799652,13.494162 222.455994,16.731106 
	C221.190247,19.492491 220.065475,22.373119 218.541000,25.023872 
	C218.054901,25.869095 216.506699,26.545113 215.446014,26.542953 
	C210.455185,26.532806 207.685928,29.389212 206.359924,33.672874 
	C204.987274,38.107231 203.916840,42.668175 203.155075,47.247089 
	C202.639709,50.344803 201.374832,51.497025 198.246857,51.217651 
	C195.302307,50.954666 192.315826,51.161255 188.808655,51.161255 
	C189.651733,46.977657 190.394318,43.292713 191.229752,39.197243 
z"/>
<path fill="#F7FAFC" opacity="1.000000" stroke="none" 
	d="
M225.160873,22.165209 
	C225.485931,17.271101 227.599091,15.334627 232.254898,16.101221 
	C234.644012,16.494598 237.151306,16.170240 240.073547,16.170240 
	C237.652817,27.423353 235.416779,38.126537 232.947845,48.775726 
	C232.722656,49.746998 231.054031,50.957424 229.970001,51.049660 
	C226.529892,51.342369 223.049149,51.157925 219.029861,51.157925 
	C221.118958,41.286617 223.098740,31.931747 225.160873,22.165209 
z"/>
<path fill="#F7FAFC" opacity="1.000000" stroke="none" 
	d="
M231.429688,3.000228 
	C235.329758,2.989884 238.780579,2.989884 242.788467,2.989884 
	C242.086288,6.289198 241.487976,9.100452 240.863586,12.034290 
	C236.466370,12.034290 232.380081,12.034290 226.788483,12.034290 
	C228.392365,8.581746 229.686401,5.796159 231.429688,3.000228 
z"/>
<path fill="#F6F9FC" opacity="1.000000" stroke="none" 
	d="
M141.641586,12.209580 
	C137.731079,12.225855 134.276184,12.225855 130.126526,12.225855 
	C130.811615,8.948670 131.397888,6.144160 132.004868,3.240579 
	C136.491440,3.240579 140.729507,3.240579 146.178009,3.240579 
	C144.620926,6.656597 143.359055,9.424952 141.641586,12.209580 
z"/>
<path fill="#1170AB" opacity="1.000000" stroke="none" 
	d="
M259.091431,44.592056 
	C257.731506,43.200493 255.998230,41.881580 255.996414,40.560280 
	C255.994949,39.508022 257.941711,37.989681 259.316528,37.498867 
	C261.891693,36.579510 264.679108,36.254601 267.859497,35.580395 
	C266.927795,41.088161 264.454285,44.079308 259.091431,44.592056 
z"/>
<path fill="#1170AB" opacity="1.000000" stroke="none" 
	d="
M166.520599,36.274799 
	C167.880386,36.078629 168.834839,35.975052 170.313919,35.814548 
	C170.006577,40.198135 168.180511,43.219067 164.327759,44.039879 
	C162.607208,44.406433 160.471420,42.823826 158.524078,42.125820 
	C159.617203,40.574577 160.472336,38.736042 161.882645,37.567661 
	C162.915848,36.711708 164.678009,36.735630 166.520599,36.274799 
z"/>
<path fill="#1372AB" opacity="1.000000" stroke="none" 
	d="
M97.747757,36.617409 
	C99.586685,36.295555 101.027428,36.070763 102.997101,35.763447 
	C102.554726,39.877117 101.052933,43.035461 97.411789,43.891644 
	C95.553406,44.328625 93.227112,42.775658 91.112312,42.122147 
	C92.228889,40.566185 93.206856,38.875912 94.525146,37.515408 
	C95.114479,36.907219 96.387062,36.961075 97.747757,36.617409 
z"/>
</svg>